<svg xmlns="http://www.w3.org/2000/svg" width="900" height="180">
<rect width="100%" height="100%" fill="#F6F0FA"/>





















































    <g>
      <circle cx="32.0" cy="60.0" r="6.0" fill="#A57BD8" /><circle cx="26.0" cy="70.39230484541326" r="6.0" fill="#A57BD8" /><circle cx="14.000000000000004" cy="70.39230484541326" r="6.0" fill="#A57BD8" /><circle cx="8.0" cy="60.0" r="6.0" fill="#A57BD8" /><circle cx="13.999999999999995" cy="49.607695154586736" r="6.0" fill="#A57BD8" /><circle cx="26.0" cy="49.607695154586736" r="6.0" fill="#A57BD8" />
      <circle cx="20" cy="60" r="4.0" fill="#5E3A8C"/>
    </g>
    

    <g>
      <circle cx="48.5" cy="60.0" r="5.25" fill="#C8AEE6" /><circle cx="41.24467844093695" cy="69.98609342109911" r="5.25" fill="#C8AEE6" /><circle cx="29.505321559063052" cy="66.17174514907097" r="5.25" fill="#C8AEE6" /><circle cx="29.50532155906305" cy="53.828254850929035" r="5.25" fill="#C8AEE6" /><circle cx="41.244678440936944" cy="50.01390657890089" r="5.25" fill="#C8AEE6" />
      <circle cx="38" cy="60" r="3.5" fill="#5E3A8C"/>
    </g>
    










    <g>
      <circle cx="234.0" cy="60.0" r="8.0" fill="#7E57C2" /><circle cx="229.31370849898477" cy="71.31370849898477" r="8.0" fill="#7E57C2" /><circle cx="218.0" cy="76.0" r="8.0" fill="#7E57C2" /><circle cx="206.68629150101523" cy="71.31370849898477" r="8.0" fill="#7E57C2" /><circle cx="202.0" cy="60.0" r="8.0" fill="#7E57C2" /><circle cx="206.68629150101523" cy="48.68629150101524" r="8.0" fill="#7E57C2" /><circle cx="218.0" cy="44.0" r="8.0" fill="#7E57C2" /><circle cx="229.31370849898477" cy="48.68629150101523" r="8.0" fill="#7E57C2" />
      <circle cx="218" cy="60" r="5.333333333333333" fill="#5E3A8C"/>
    </g>
    







    <g>
      <circle cx="356.0" cy="60.0" r="6.0" fill="#A57BD8" /><circle cx="350.0" cy="70.39230484541326" r="6.0" fill="#A57BD8" /><circle cx="338.0" cy="70.39230484541326" r="6.0" fill="#A57BD8" /><circle cx="332.0" cy="60.0" r="6.0" fill="#A57BD8" /><circle cx="338.0" cy="49.607695154586736" r="6.0" fill="#A57BD8" /><circle cx="350.0" cy="49.607695154586736" r="6.0" fill="#A57BD8" />
      <circle cx="344" cy="60" r="4.0" fill="#5E3A8C"/>
    </g>
    

    <g>
      <circle cx="378.0" cy="60.0" r="8.0" fill="#7E57C2" /><circle cx="373.31370849898474" cy="71.31370849898477" r="8.0" fill="#7E57C2" /><circle cx="362.0" cy="76.0" r="8.0" fill="#7E57C2" /><circle cx="350.68629150101526" cy="71.31370849898477" r="8.0" fill="#7E57C2" /><circle cx="346.0" cy="60.0" r="8.0" fill="#7E57C2" /><circle cx="350.68629150101526" cy="48.68629150101524" r="8.0" fill="#7E57C2" /><circle cx="362.0" cy="44.0" r="8.0" fill="#7E57C2" /><circle cx="373.31370849898474" cy="48.68629150101523" r="8.0" fill="#7E57C2" />
      <circle cx="362" cy="60" r="5.333333333333333" fill="#5E3A8C"/>
    </g>
    



    <g>
      <circle cx="432.0" cy="60.0" r="8.0" fill="#7E57C2" /><circle cx="427.31370849898474" cy="71.31370849898477" r="8.0" fill="#7E57C2" /><circle cx="416.0" cy="76.0" r="8.0" fill="#7E57C2" /><circle cx="404.68629150101526" cy="71.31370849898477" r="8.0" fill="#7E57C2" /><circle cx="400.0" cy="60.0" r="8.0" fill="#7E57C2" /><circle cx="404.68629150101526" cy="48.68629150101524" r="8.0" fill="#7E57C2" /><circle cx="416.0" cy="44.0" r="8.0" fill="#7E57C2" /><circle cx="427.31370849898474" cy="48.68629150101523" r="8.0" fill="#7E57C2" />
      <circle cx="416" cy="60" r="5.333333333333333" fill="#5E3A8C"/>
    </g>
    





    <g>
      <circle cx="515.0" cy="60.0" r="4.5" fill="#C8AEE6" /><circle cx="506.0" cy="69.0" r="4.5" fill="#C8AEE6" /><circle cx="497.0" cy="60.0" r="4.5" fill="#C8AEE6" /><circle cx="506.0" cy="51.0" r="4.5" fill="#C8AEE6" />
      <circle cx="506" cy="60" r="3.0" fill="#5E3A8C"/>
    </g>
    





















    <g>
      <circle cx="900.0" cy="60.0" r="8.0" fill="#7E57C2" /><circle cx="895.3137084989847" cy="71.31370849898477" r="8.0" fill="#7E57C2" /><circle cx="884.0" cy="76.0" r="8.0" fill="#7E57C2" /><circle cx="872.6862915010153" cy="71.31370849898477" r="8.0" fill="#7E57C2" /><circle cx="868.0" cy="60.0" r="8.0" fill="#7E57C2" /><circle cx="872.6862915010153" cy="48.68629150101524" r="8.0" fill="#7E57C2" /><circle cx="884.0" cy="44.0" r="8.0" fill="#7E57C2" /><circle cx="895.3137084989847" cy="48.68629150101523" r="8.0" fill="#7E57C2" />
      <circle cx="884" cy="60" r="5.333333333333333" fill="#5E3A8C"/>
    </g>
    


























    <g>
      <circle cx="428.0" cy="90.0" r="6.0" fill="#A57BD8" /><circle cx="422.0" cy="100.39230484541326" r="6.0" fill="#A57BD8" /><circle cx="410.0" cy="100.39230484541326" r="6.0" fill="#A57BD8" /><circle cx="404.0" cy="90.0" r="6.0" fill="#A57BD8" /><circle cx="410.0" cy="79.60769515458674" r="6.0" fill="#A57BD8" /><circle cx="422.0" cy="79.60769515458674" r="6.0" fill="#A57BD8" />
      <circle cx="416" cy="90" r="4.0" fill="#5E3A8C"/>
    </g>
    

    <g>
      <circle cx="443.0" cy="90.0" r="4.5" fill="#C8AEE6" /><circle cx="434.0" cy="99.0" r="4.5" fill="#C8AEE6" /><circle cx="425.0" cy="90.0" r="4.5" fill="#C8AEE6" /><circle cx="434.0" cy="81.0" r="4.5" fill="#C8AEE6" />
      <circle cx="434" cy="90" r="3.0" fill="#5E3A8C"/>
    </g>
    

    <g>
      <circle cx="461.0" cy="90.0" r="4.5" fill="#C8AEE6" /><circle cx="452.0" cy="99.0" r="4.5" fill="#C8AEE6" /><circle cx="443.0" cy="90.0" r="4.5" fill="#C8AEE6" /><circle cx="452.0" cy="81.0" r="4.5" fill="#C8AEE6" />
      <circle cx="452" cy="90" r="3.0" fill="#5E3A8C"/>
    </g>
    

    <g>
      <circle cx="479.0" cy="90.0" r="4.5" fill="#C8AEE6" /><circle cx="470.0" cy="99.0" r="4.5" fill="#C8AEE6" /><circle cx="461.0" cy="90.0" r="4.5" fill="#C8AEE6" /><circle cx="470.0" cy="81.0" r="4.5" fill="#C8AEE6" />
      <circle cx="470" cy="90" r="3.0" fill="#5E3A8C"/>
    </g>
    

    <g>
      <circle cx="497.0" cy="90.0" r="4.5" fill="#C8AEE6" /><circle cx="488.0" cy="99.0" r="4.5" fill="#C8AEE6" /><circle cx="479.0" cy="90.0" r="4.5" fill="#C8AEE6" /><circle cx="488.0" cy="81.0" r="4.5" fill="#C8AEE6" />
      <circle cx="488" cy="90" r="3.0" fill="#5E3A8C"/>
    </g>
    

    <g>
      <circle cx="515.0" cy="90.0" r="4.5" fill="#C8AEE6" /><circle cx="506.0" cy="99.0" r="4.5" fill="#C8AEE6" /><circle cx="497.0" cy="90.0" r="4.5" fill="#C8AEE6" /><circle cx="506.0" cy="81.0" r="4.5" fill="#C8AEE6" />
      <circle cx="506" cy="90" r="3.0" fill="#5E3A8C"/>
    </g>
    

    <g>
      <circle cx="533.0" cy="90.0" r="4.5" fill="#C8AEE6" /><circle cx="524.0" cy="99.0" r="4.5" fill="#C8AEE6" /><circle cx="515.0" cy="90.0" r="4.5" fill="#C8AEE6" /><circle cx="524.0" cy="81.0" r="4.5" fill="#C8AEE6" />
      <circle cx="524" cy="90" r="3.0" fill="#5E3A8C"/>
    </g>
    

    <g>
      <circle cx="551.0" cy="90.0" r="4.5" fill="#C8AEE6" /><circle cx="542.0" cy="99.0" r="4.5" fill="#C8AEE6" /><circle cx="533.0" cy="90.0" r="4.5" fill="#C8AEE6" /><circle cx="542.0" cy="81.0" r="4.5" fill="#C8AEE6" />
      <circle cx="542" cy="90" r="3.0" fill="#5E3A8C"/>
    </g>
    

    <g>
      <circle cx="569.0" cy="90.0" r="4.5" fill="#C8AEE6" /><circle cx="560.0" cy="99.0" r="4.5" fill="#C8AEE6" /><circle cx="551.0" cy="90.0" r="4.5" fill="#C8AEE6" /><circle cx="560.0" cy="81.0" r="4.5" fill="#C8AEE6" />
      <circle cx="560" cy="90" r="3.0" fill="#5E3A8C"/>
    </g>
    

    <g>
      <circle cx="587.0" cy="90.0" r="4.5" fill="#C8AEE6" /><circle cx="578.0" cy="99.0" r="4.5" fill="#C8AEE6" /><circle cx="569.0" cy="90.0" r="4.5" fill="#C8AEE6" /><circle cx="578.0" cy="81.0" r="4.5" fill="#C8AEE6" />
      <circle cx="578" cy="90" r="3.0" fill="#5E3A8C"/>
    </g>
    

    <g>
      <circle cx="605.0" cy="90.0" r="4.5" fill="#C8AEE6" /><circle cx="596.0" cy="99.0" r="4.5" fill="#C8AEE6" /><circle cx="587.0" cy="90.0" r="4.5" fill="#C8AEE6" /><circle cx="596.0" cy="81.0" r="4.5" fill="#C8AEE6" />
      <circle cx="596" cy="90" r="3.0" fill="#5E3A8C"/>
    </g>
    

    <g>
      <circle cx="623.0" cy="90.0" r="4.5" fill="#C8AEE6" /><circle cx="614.0" cy="99.0" r="4.5" fill="#C8AEE6" /><circle cx="605.0" cy="90.0" r="4.5" fill="#C8AEE6" /><circle cx="614.0" cy="81.0" r="4.5" fill="#C8AEE6" />
      <circle cx="614" cy="90" r="3.0" fill="#5E3A8C"/>
    </g>
    

    <g>
      <circle cx="641.0" cy="90.0" r="4.5" fill="#C8AEE6" /><circle cx="632.0" cy="99.0" r="4.5" fill="#C8AEE6" /><circle cx="623.0" cy="90.0" r="4.5" fill="#C8AEE6" /><circle cx="632.0" cy="81.0" r="4.5" fill="#C8AEE6" />
      <circle cx="632" cy="90" r="3.0" fill="#5E3A8C"/>
    </g>
    

    <g>
      <circle cx="659.0" cy="90.0" r="4.5" fill="#C8AEE6" /><circle cx="650.0" cy="99.0" r="4.5" fill="#C8AEE6" /><circle cx="641.0" cy="90.0" r="4.5" fill="#C8AEE6" /><circle cx="650.0" cy="81.0" r="4.5" fill="#C8AEE6" />
      <circle cx="650" cy="90" r="3.0" fill="#5E3A8C"/>
    </g>
    

    <g>
      <circle cx="677.0" cy="90.0" r="4.5" fill="#C8AEE6" /><circle cx="668.0" cy="99.0" r="4.5" fill="#C8AEE6" /><circle cx="659.0" cy="90.0" r="4.5" fill="#C8AEE6" /><circle cx="668.0" cy="81.0" r="4.5" fill="#C8AEE6" />
      <circle cx="668" cy="90" r="3.0" fill="#5E3A8C"/>
    </g>
    

    <g>
      <circle cx="696.5" cy="90.0" r="5.25" fill="#C8AEE6" /><circle cx="689.2446784409369" cy="99.98609342109911" r="5.25" fill="#C8AEE6" /><circle cx="677.5053215590631" cy="96.17174514907097" r="5.25" fill="#C8AEE6" /><circle cx="677.5053215590631" cy="83.82825485092903" r="5.25" fill="#C8AEE6" /><circle cx="689.2446784409369" cy="80.01390657890089" r="5.25" fill="#C8AEE6" />
      <circle cx="686" cy="90" r="3.5" fill="#5E3A8C"/>
    </g>
    

    <g>
      <circle cx="713.0" cy="90.0" r="4.5" fill="#C8AEE6" /><circle cx="704.0" cy="99.0" r="4.5" fill="#C8AEE6" /><circle cx="695.0" cy="90.0" r="4.5" fill="#C8AEE6" /><circle cx="704.0" cy="81.0" r="4.5" fill="#C8AEE6" />
      <circle cx="704" cy="90" r="3.0" fill="#5E3A8C"/>
    </g>
    

    <g>
      <circle cx="731.0" cy="90.0" r="4.5" fill="#C8AEE6" /><circle cx="722.0" cy="99.0" r="4.5" fill="#C8AEE6" /><circle cx="713.0" cy="90.0" r="4.5" fill="#C8AEE6" /><circle cx="722.0" cy="81.0" r="4.5" fill="#C8AEE6" />
      <circle cx="722" cy="90" r="3.0" fill="#5E3A8C"/>
    </g>
    

    <g>
      <circle cx="749.0" cy="90.0" r="4.5" fill="#C8AEE6" /><circle cx="740.0" cy="99.0" r="4.5" fill="#C8AEE6" /><circle cx="731.0" cy="90.0" r="4.5" fill="#C8AEE6" /><circle cx="740.0" cy="81.0" r="4.5" fill="#C8AEE6" />
      <circle cx="740" cy="90" r="3.0" fill="#5E3A8C"/>
    </g>
    

    <g>
      <circle cx="767.0" cy="90.0" r="4.5" fill="#C8AEE6" /><circle cx="758.0" cy="99.0" r="4.5" fill="#C8AEE6" /><circle cx="749.0" cy="90.0" r="4.5" fill="#C8AEE6" /><circle cx="758.0" cy="81.0" r="4.5" fill="#C8AEE6" />
      <circle cx="758" cy="90" r="3.0" fill="#5E3A8C"/>
    </g>
    

    <g>
      <circle cx="785.0" cy="90.0" r="4.5" fill="#C8AEE6" /><circle cx="776.0" cy="99.0" r="4.5" fill="#C8AEE6" /><circle cx="767.0" cy="90.0" r="4.5" fill="#C8AEE6" /><circle cx="776.0" cy="81.0" r="4.5" fill="#C8AEE6" />
      <circle cx="776" cy="90" r="3.0" fill="#5E3A8C"/>
    </g>
    

    <g>
      <circle cx="803.0" cy="90.0" r="4.5" fill="#C8AEE6" /><circle cx="794.0" cy="99.0" r="4.5" fill="#C8AEE6" /><circle cx="785.0" cy="90.0" r="4.5" fill="#C8AEE6" /><circle cx="794.0" cy="81.0" r="4.5" fill="#C8AEE6" />
      <circle cx="794" cy="90" r="3.0" fill="#5E3A8C"/>
    </g>
    

    <g>
      <circle cx="828.0" cy="90.0" r="8.0" fill="#7E57C2" /><circle cx="823.3137084989847" cy="101.31370849898477" r="8.0" fill="#7E57C2" /><circle cx="812.0" cy="106.0" r="8.0" fill="#7E57C2" /><circle cx="800.6862915010153" cy="101.31370849898477" r="8.0" fill="#7E57C2" /><circle cx="796.0" cy="90.0" r="8.0" fill="#7E57C2" /><circle cx="800.6862915010153" cy="78.68629150101523" r="8.0" fill="#7E57C2" /><circle cx="812.0" cy="74.0" r="8.0" fill="#7E57C2" /><circle cx="823.3137084989847" cy="78.68629150101523" r="8.0" fill="#7E57C2" />
      <circle cx="812" cy="90" r="5.333333333333333" fill="#5E3A8C"/>
    </g>
    

    <g>
      <circle cx="839.0" cy="90.0" r="4.5" fill="#C8AEE6" /><circle cx="830.0" cy="99.0" r="4.5" fill="#C8AEE6" /><circle cx="821.0" cy="90.0" r="4.5" fill="#C8AEE6" /><circle cx="830.0" cy="81.0" r="4.5" fill="#C8AEE6" />
      <circle cx="830" cy="90" r="3.0" fill="#5E3A8C"/>
    </g>
    

    <g>
      <circle cx="861.5" cy="90.0" r="6.75" fill="#A57BD8" /><circle cx="856.417112325093" cy="100.5547250133184" r="6.75" fill="#A57BD8" /><circle cx="844.9959673915897" cy="103.16152681445462" r="6.75" fill="#A57BD8" /><circle cx="835.8369202833173" cy="95.85743047808704" r="6.75" fill="#A57BD8" /><circle cx="835.8369202833173" cy="84.14256952191296" r="6.75" fill="#A57BD8" /><circle cx="844.9959673915897" cy="76.83847318554538" r="6.75" fill="#A57BD8" /><circle cx="856.417112325093" cy="79.4452749866816" r="6.75" fill="#A57BD8" />
      <circle cx="848" cy="90" r="4.5" fill="#5E3A8C"/>
    </g>
    

    <g>
      <circle cx="875.0" cy="90.0" r="4.5" fill="#C8AEE6" /><circle cx="866.0" cy="99.0" r="4.5" fill="#C8AEE6" /><circle cx="857.0" cy="90.0" r="4.5" fill="#C8AEE6" /><circle cx="866.0" cy="81.0" r="4.5" fill="#C8AEE6" />
      <circle cx="866" cy="90" r="3.0" fill="#5E3A8C"/>
    </g>
    

    <g>
      <circle cx="900.0" cy="90.0" r="8.0" fill="#7E57C2" /><circle cx="895.3137084989847" cy="101.31370849898477" r="8.0" fill="#7E57C2" /><circle cx="884.0" cy="106.0" r="8.0" fill="#7E57C2" /><circle cx="872.6862915010153" cy="101.31370849898477" r="8.0" fill="#7E57C2" /><circle cx="868.0" cy="90.0" r="8.0" fill="#7E57C2" /><circle cx="872.6862915010153" cy="78.68629150101523" r="8.0" fill="#7E57C2" /><circle cx="884.0" cy="74.0" r="8.0" fill="#7E57C2" /><circle cx="895.3137084989847" cy="78.68629150101523" r="8.0" fill="#7E57C2" />
      <circle cx="884" cy="90" r="5.333333333333333" fill="#5E3A8C"/>
    </g>
    

    <g>
      <circle cx="914.0" cy="90.0" r="6.0" fill="#A57BD8" /><circle cx="908.0" cy="100.39230484541326" r="6.0" fill="#A57BD8" /><circle cx="896.0" cy="100.39230484541326" r="6.0" fill="#A57BD8" /><circle cx="890.0" cy="90.0" r="6.0" fill="#A57BD8" /><circle cx="896.0" cy="79.60769515458674" r="6.0" fill="#A57BD8" /><circle cx="908.0" cy="79.60769515458674" r="6.0" fill="#A57BD8" />
      <circle cx="902" cy="90" r="4.0" fill="#5E3A8C"/>
    </g>
    

    <g>
      <circle cx="929.0" cy="90.0" r="4.5" fill="#C8AEE6" /><circle cx="920.0" cy="99.0" r="4.5" fill="#C8AEE6" /><circle cx="911.0" cy="90.0" r="4.5" fill="#C8AEE6" /><circle cx="920.0" cy="81.0" r="4.5" fill="#C8AEE6" />
      <circle cx="920" cy="90" r="3.0" fill="#5E3A8C"/>
    </g>
    

    <g>
      <circle cx="947.0" cy="90.0" r="4.5" fill="#C8AEE6" /><circle cx="938.0" cy="99.0" r="4.5" fill="#C8AEE6" /><circle cx="929.0" cy="90.0" r="4.5" fill="#C8AEE6" /><circle cx="938.0" cy="81.0" r="4.5" fill="#C8AEE6" />
      <circle cx="938" cy="90" r="3.0" fill="#5E3A8C"/>
    </g>
    
































    <g>
      <circle cx="590.0" cy="120.0" r="6.0" fill="#A57BD8" /><circle cx="584.0" cy="130.39230484541326" r="6.0" fill="#A57BD8" /><circle cx="572.0" cy="130.39230484541326" r="6.0" fill="#A57BD8" /><circle cx="566.0" cy="120.0" r="6.0" fill="#A57BD8" /><circle cx="572.0" cy="109.60769515458674" r="6.0" fill="#A57BD8" /><circle cx="584.0" cy="109.60769515458674" r="6.0" fill="#A57BD8" />
      <circle cx="578" cy="120" r="4.0" fill="#5E3A8C"/>
    </g>
    





    <g>
      <circle cx="675.5" cy="120.0" r="3.75" fill="#E6D9F2" /><circle cx="664.25" cy="126.49519052838329" r="3.75" fill="#E6D9F2" /><circle cx="664.25" cy="113.50480947161671" r="3.75" fill="#E6D9F2" />
      <circle cx="668" cy="120" r="2.5" fill="#5E3A8C"/>
    </g>
    


    <g>
      <circle cx="720.0" cy="120.0" r="8.0" fill="#7E57C2" /><circle cx="715.3137084989847" cy="131.31370849898477" r="8.0" fill="#7E57C2" /><circle cx="704.0" cy="136.0" r="8.0" fill="#7E57C2" /><circle cx="692.6862915010153" cy="131.31370849898477" r="8.0" fill="#7E57C2" /><circle cx="688.0" cy="120.0" r="8.0" fill="#7E57C2" /><circle cx="692.6862915010153" cy="108.68629150101523" r="8.0" fill="#7E57C2" /><circle cx="704.0" cy="104.0" r="8.0" fill="#7E57C2" /><circle cx="715.3137084989847" cy="108.68629150101523" r="8.0" fill="#7E57C2" />
      <circle cx="704" cy="120" r="5.333333333333333" fill="#5E3A8C"/>
    </g>
    

    <g>
      <circle cx="729.5" cy="120.0" r="3.75" fill="#E6D9F2" /><circle cx="718.25" cy="126.49519052838329" r="3.75" fill="#E6D9F2" /><circle cx="718.25" cy="113.50480947161671" r="3.75" fill="#E6D9F2" />
      <circle cx="722" cy="120" r="2.5" fill="#5E3A8C"/>
    </g>
    











    <g>
      <circle cx="927.5" cy="120.0" r="3.75" fill="#E6D9F2" /><circle cx="916.25" cy="126.49519052838329" r="3.75" fill="#E6D9F2" /><circle cx="916.25" cy="113.50480947161671" r="3.75" fill="#E6D9F2" />
      <circle cx="920" cy="120" r="2.5" fill="#5E3A8C"/>
    </g>
    

































    <g>
      <circle cx="587.0" cy="150.0" r="4.5" fill="#C8AEE6" /><circle cx="578.0" cy="159.0" r="4.5" fill="#C8AEE6" /><circle cx="569.0" cy="150.0" r="4.5" fill="#C8AEE6" /><circle cx="578.0" cy="141.0" r="4.5" fill="#C8AEE6" />
      <circle cx="578" cy="150" r="3.0" fill="#5E3A8C"/>
    </g>
    

    <g>
      <circle cx="605.0" cy="150.0" r="4.5" fill="#C8AEE6" /><circle cx="596.0" cy="159.0" r="4.5" fill="#C8AEE6" /><circle cx="587.0" cy="150.0" r="4.5" fill="#C8AEE6" /><circle cx="596.0" cy="141.0" r="4.5" fill="#C8AEE6" />
      <circle cx="596" cy="150" r="3.0" fill="#5E3A8C"/>
    </g>
    








































    <g>
      <circle cx="392.0" cy="180.0" r="6.0" fill="#A57BD8" /><circle cx="386.0" cy="190.39230484541326" r="6.0" fill="#A57BD8" /><circle cx="374.0" cy="190.39230484541326" r="6.0" fill="#A57BD8" /><circle cx="368.0" cy="180.0" r="6.0" fill="#A57BD8" /><circle cx="374.0" cy="169.60769515458674" r="6.0" fill="#A57BD8" /><circle cx="386.0" cy="169.60769515458674" r="6.0" fill="#A57BD8" />
      <circle cx="380" cy="180" r="4.0" fill="#5E3A8C"/>
    </g>
    

    <g>
      <circle cx="411.5" cy="180.0" r="6.75" fill="#A57BD8" /><circle cx="406.4171123250929" cy="190.5547250133184" r="6.75" fill="#A57BD8" /><circle cx="394.9959673915898" cy="193.16152681445462" r="6.75" fill="#A57BD8" /><circle cx="385.83692028331734" cy="185.85743047808702" r="6.75" fill="#A57BD8" /><circle cx="385.83692028331734" cy="174.14256952191298" r="6.75" fill="#A57BD8" /><circle cx="394.9959673915898" cy="166.83847318554538" r="6.75" fill="#A57BD8" /><circle cx="406.4171123250929" cy="169.4452749866816" r="6.75" fill="#A57BD8" />
      <circle cx="398" cy="180" r="4.5" fill="#5E3A8C"/>
    </g>
    







    <g>
      <circle cx="537.5" cy="180.0" r="6.75" fill="#A57BD8" /><circle cx="532.417112325093" cy="190.5547250133184" r="6.75" fill="#A57BD8" /><circle cx="520.9959673915897" cy="193.16152681445462" r="6.75" fill="#A57BD8" /><circle cx="511.83692028331734" cy="185.85743047808702" r="6.75" fill="#A57BD8" /><circle cx="511.83692028331734" cy="174.14256952191298" r="6.75" fill="#A57BD8" /><circle cx="520.9959673915897" cy="166.83847318554538" r="6.75" fill="#A57BD8" /><circle cx="532.417112325093" cy="169.4452749866816" r="6.75" fill="#A57BD8" />
      <circle cx="524" cy="180" r="4.5" fill="#5E3A8C"/>
    </g>
    

    <g>
      <circle cx="551.0" cy="180.0" r="4.5" fill="#C8AEE6" /><circle cx="542.0" cy="189.0" r="4.5" fill="#C8AEE6" /><circle cx="533.0" cy="180.0" r="4.5" fill="#C8AEE6" /><circle cx="542.0" cy="171.0" r="4.5" fill="#C8AEE6" />
      <circle cx="542" cy="180" r="3.0" fill="#5E3A8C"/>
    </g>
    


    <g>
      <circle cx="594.0" cy="180.0" r="8.0" fill="#7E57C2" /><circle cx="589.3137084989847" cy="191.31370849898477" r="8.0" fill="#7E57C2" /><circle cx="578.0" cy="196.0" r="8.0" fill="#7E57C2" /><circle cx="566.6862915010153" cy="191.31370849898477" r="8.0" fill="#7E57C2" /><circle cx="562.0" cy="180.0" r="8.0" fill="#7E57C2" /><circle cx="566.6862915010153" cy="168.68629150101523" r="8.0" fill="#7E57C2" /><circle cx="578.0" cy="164.0" r="8.0" fill="#7E57C2" /><circle cx="589.3137084989847" cy="168.68629150101523" r="8.0" fill="#7E57C2" />
      <circle cx="578" cy="180" r="5.333333333333333" fill="#5E3A8C"/>
    </g>
    


    <g>
      <circle cx="626.0" cy="180.0" r="6.0" fill="#A57BD8" /><circle cx="620.0" cy="190.39230484541326" r="6.0" fill="#A57BD8" /><circle cx="608.0" cy="190.39230484541326" r="6.0" fill="#A57BD8" /><circle cx="602.0" cy="180.0" r="6.0" fill="#A57BD8" /><circle cx="608.0" cy="169.60769515458674" r="6.0" fill="#A57BD8" /><circle cx="620.0" cy="169.60769515458674" r="6.0" fill="#A57BD8" />
      <circle cx="614" cy="180" r="4.0" fill="#5E3A8C"/>
    </g>
    

























































    <g>
      <circle cx="713.0" cy="210.0" r="4.5" fill="#C8AEE6" /><circle cx="704.0" cy="219.0" r="4.5" fill="#C8AEE6" /><circle cx="695.0" cy="210.0" r="4.5" fill="#C8AEE6" /><circle cx="704.0" cy="201.0" r="4.5" fill="#C8AEE6" />
      <circle cx="704" cy="210" r="3.0" fill="#5E3A8C"/>
    </g>
    













    <g>
      <circle cx="947.0" cy="210.0" r="4.5" fill="#C8AEE6" /><circle cx="938.0" cy="219.0" r="4.5" fill="#C8AEE6" /><circle cx="929.0" cy="210.0" r="4.5" fill="#C8AEE6" /><circle cx="938.0" cy="201.0" r="4.5" fill="#C8AEE6" />
      <circle cx="938" cy="210" r="3.0" fill="#5E3A8C"/>
    </g>
    

    <g>
      <circle cx="36.0" cy="240.0" r="8.0" fill="#7E57C2" /><circle cx="31.31370849898476" cy="251.31370849898477" r="8.0" fill="#7E57C2" /><circle cx="20.0" cy="256.0" r="8.0" fill="#7E57C2" /><circle cx="8.68629150101524" cy="251.31370849898477" r="8.0" fill="#7E57C2" /><circle cx="4.0" cy="240.0" r="8.0" fill="#7E57C2" /><circle cx="8.686291501015237" cy="228.68629150101523" r="8.0" fill="#7E57C2" /><circle cx="19.999999999999996" cy="224.0" r="8.0" fill="#7E57C2" /><circle cx="31.31370849898476" cy="228.68629150101523" r="8.0" fill="#7E57C2" />
      <circle cx="20" cy="240" r="5.333333333333333" fill="#5E3A8C"/>
    </g>
    
</svg>